<?xml version="1.0" standalone="no"?>
<svg xmlns:x="http://ns.adobe.com/Extensibility/1.0/" xmlns:i="http://ns.adobe.com/AdobeIllustrator/10.0/" xmlns:graph="http://ns.adobe.com/Graphs/1.0/" xmlns="http://www.w3.org/2000/svg" xmlns:xlink="http://www.w3.org/1999/xlink" fill="currentColor" version="1.1" id="Layer_1" width="128" height="128" viewBox="0 0 24 24" enable-background="new 0 0 24 24" xml:space="preserve">
  <metadata>
    <sfw xmlns="http://ns.adobe.com/SaveForWeb/1.0/">
      <slices></slices>
      <sliceSourceBounds width="505" height="984" bottomLeftOrigin="true" x="0" y="-552"></sliceSourceBounds>
    </sfw>
  </metadata>
  <g>
    <g>
      <g>
        <path d="M12,16c-4.4,0-8-3.6-8-8s3.6-8,8-8s8,3.6,8,8S16.4,16,12,16z M12,2C8.7,2,6,4.7,6,8s2.7,6,6,6s6-2.7,6-6S15.3,2,12,2z" fill="currentColor" />
      </g>
    </g>
    <g>
      <g>
        <path d="M16,24c-0.2,0-0.3,0-0.4-0.1L12,22.1l-3.6,1.8c-0.3,0.2-0.7,0.1-1,0C7.2,23.7,7,23.3,7,23v-9c0-0.6,0.4-1,1-1s1,0.4,1,1v7.4l2.6-1.3c0.3-0.1,0.6-0.1,0.9,0l2.6,1.3V14c0-0.6,0.4-1,1-1s1,0.4,1,1v9c0,0.3-0.2,0.7-0.5,0.9C16.4,23.9,16.2,24,16,24z" fill="currentColor" />
      </g>
    </g>
  </g>
</svg>
