<?xml version="1.0" encoding="UTF-8"?>
<!DOCTYPE svg PUBLIC "-//W3C//DTD SVG 1.1//EN" "http://www.w3.org/Graphics/SVG/1.1/DTD/svg11.dtd">
<svg xmlns="http://www.w3.org/2000/svg" version="1.1" width="225px" height="225px" style="shape-rendering:geometricPrecision; text-rendering:geometricPrecision; image-rendering:optimizeQuality; fill-rule:evenodd; clip-rule:evenodd" xmlns:xlink="http://www.w3.org/1999/xlink">
<g><path style="opacity:0.999" fill="#040404" d="M 63.5,30.5 C 64.8333,30.5 66.1667,30.5 67.5,30.5C 67.5,80.1667 67.5,129.833 67.5,179.5C 48.2543,183.77 29.0876,188.436 10,193.5C 9.22797,193.355 8.5613,193.022 8,192.5C 7.83333,190 7.66667,187.5 7.5,185C 8.18069,138.505 8.34736,92.0054 8,45.5C 26.567,40.4017 45.067,35.4017 63.5,30.5 Z"/></g>
<g><path style="opacity:0.999" fill="#070707" d="M 212.5,30.5 C 213.833,30.5 215.167,30.5 216.5,30.5C 216.667,79.8345 216.5,129.168 216,178.5C 196.275,183.89 176.442,188.89 156.5,193.5C 156.5,143.833 156.5,94.1667 156.5,44.5C 175.353,40.12 194.02,35.4533 212.5,30.5 Z"/></g>
<g><path style="opacity:0.998" fill="#060606" d="M 139.5,44.5 C 141.488,93.2827 142.155,142.283 141.5,191.5C 141.53,192.497 141.03,193.164 140,193.5C 120.596,188.649 101.262,183.649 82,178.5C 82.0672,129.189 81.9005,79.8557 81.5,30.5C 101.004,34.5428 120.337,39.2095 139.5,44.5 Z"/></g>
<g><path style="opacity:0.059" fill="#d9d9d9" d="M 139.5,44.5 C 140.5,44.5 141.5,44.5 142.5,44.5C 142.832,93.6695 142.499,142.67 141.5,191.5C 142.155,142.283 141.488,93.2827 139.5,44.5 Z"/></g>
</svg>
